Coordinates
version=1
nRows=16
nColumns=36
inDegrees=yes

Units are S.I. units (second, meters, Newtons, ...)
If the header above contains a line with 'inDegrees', this indicates whether rotational values are in degrees (yes) or radians (no).

endheader
time	pelvis_tilt	pelvis_list	pelvis_rotation	pelvis_tx	pelvis_ty	pelvis_tz	hip_flexion_r	hip_adduction_r	hip_rotation_r	knee_angle_r	knee_angle_r_beta	ankle_angle_r	subtalar_angle_r	mtp_angle_r	hip_flexion_l	hip_adduction_l	hip_rotation_l	knee_angle_l	knee_angle_l_beta	ankle_angle_l	subtalar_angle_l	mtp_angle_l	lumbar_extension	lumbar_bending	lumbar_rotation	arm_flex_r	arm_add_r	arm_rot_r	elbow_flex_r	pro_sup_r	arm_flex_l	arm_add_l	arm_rot_l	elbow_flex_l	pro_sup_l
      6.73000000	    -31.37745497	      2.32001562	      0.18818821	     -0.34719358	      0.61276219	     -0.60172275	    102.90026892	    -13.23761648	      5.83024153	     97.37754538	      1.69955878	     32.32798297	      2.28655214	     -7.49999987	    101.62330168	    -13.91933302	      0.33700456	     95.50738091	      1.66691826	     30.13875078	      0.03494899	     -7.49999987	    -26.25145339	     -1.06024142	     -0.70422624	     91.73844175	     -7.02461558	     25.19874630	    115.01024866	    113.89404122	     90.53099178	     -5.32847621	     23.89110991	    113.64213227	    111.18606214
      6.74000000	    -31.26578533	      2.31103099	      0.22071772	     -0.34698554	      0.61303173	     -0.60205461	    102.76495637	    -13.30652312	      5.84144887	     97.40479725	      1.70003442	     32.40139502	      2.29353019	     -7.49999987	    101.47101362	    -13.87015027	      0.29326272	     95.49816551	      1.66675742	     30.17272855	      0.01094181	     -7.49999987	    -26.23376718	     -0.99408000	     -0.60281500	     91.78905791	     -7.04707878	     25.23853202	    115.02392622	    114.14602565	     90.37380015	     -5.26519606	     23.94074268	    113.55975234	    110.73443242
      6.75000000	    -31.23622451	      2.28849408	      0.22546071	     -0.34681531	      0.61332157	     -0.60232907	    102.68128671	    -13.32005397	      5.82938381	     97.36886645	      1.69940731	     32.40125533	      2.28394955	     -7.49999987	    101.40776372	    -13.83430951	      0.29391729	     95.47857179	      1.66641544	     30.19831380	      0.00633255	     -7.49999987	    -26.15842511	     -0.95166522	     -0.58954962	     91.82449821	     -7.00682843	     25.24522201	    114.99708035	    114.21466087	     90.33599897	     -5.25576003	     24.00857104	    113.63951945	    109.99556084
      6.76000000	    -31.21746620	      2.27299206	      0.19494666	     -0.34663262	      0.61365952	     -0.60256023	    102.59525218	    -13.28117926	      5.84693758	     97.30751383	      1.69833650	     32.48067498	      2.35249247	     -7.49999987	    101.33457521	    -13.82715041	      0.30512940	     95.44929032	      1.66590438	     30.28512273	      0.05584113	     -7.49999987	    -26.07291972	     -0.94567514	     -0.61245085	     91.87450446	     -6.89134831	     25.27170790	    114.90270290	    114.35718353	     90.36811747	     -5.28513039	     24.09802653	    113.74124181	    109.28433905
      6.77000000	    -31.22118435	      2.23730838	      0.19455239	     -0.34649461	      0.61402665	     -0.60283825	    102.52474316	    -13.26183473	      5.84375153	     97.23828594	      1.69712825	     32.36380728	      2.22149093	     -7.49999987	    101.28908409	    -13.80124219	      0.30117174	     95.39201408	      1.66490473	     30.22372042	     -0.07133987	     -7.49999987	    -25.95690050	     -0.91471329	     -0.60446067	     91.92685879	     -6.88168671	     25.35383294	    114.93073537	    114.26599158	     90.37557298	     -5.27083711	     24.13652103	    113.82497777	    108.71764333
      6.78000000	    -31.16607414	      2.23560055	      0.19824052	     -0.34631284	      0.61438003	     -0.60306857	    102.41906390	    -13.27129543	      5.86947224	     97.20994813	      1.69663366	     32.54311359	      2.41448305	     -7.49999987	    101.17813579	    -13.77055984	      0.28770630	     95.37249657	      1.66456408	     30.37698834	      0.06535717	     -7.49999987	    -25.83950395	     -0.94339880	     -0.51805707	     91.88682426	     -6.94495976	     25.25394735	    114.90541296	    114.25873056	     90.28805293	     -5.11636774	     24.04476201	    113.73028938	    108.60521695
      6.79000000	    -31.15200405	      2.18881582	      0.22678661	     -0.34617068	      0.61478203	     -0.60335795	    102.30429596	    -13.27773888	      5.85475292	     97.11111570	      1.69490871	     32.50443495	      2.34264210	     -7.49999987	    101.14082520	    -13.68764470	      0.34373415	     95.34465841	      1.66407821	     30.27278524	      0.02241197	     -7.49999987	    -25.67866575	     -0.91403640	     -0.46465437	     91.83584875	     -7.00306604	     25.19798149	    114.88310908	    114.45957263	     90.21987409	     -4.97325376	     24.17930149	    113.85771972	    106.73011610
      6.80000000	    -31.13016082	      2.15118348	      0.17448910	     -0.34590521	      0.61546980	     -0.60344236	    102.11030442	    -13.18743853	      5.79544799	     96.95507266	      1.69218524	     32.44728218	      1.98017179	     -7.49999987	    101.03691893	    -13.71416203	      0.36971948	     95.26380332	      1.66266703	     30.16724997	     -0.11107811	     -7.49999987	    -25.54094382	     -0.91156986	     -0.43323917	     91.81374028	     -6.95627494	     25.20839998	    114.85913238	    114.11330704	     90.22105300	     -4.97539018	     23.88835096	    113.34478812	    110.89910160
      6.81000000	    -31.15076462	      2.11439276	      0.07394598	     -0.34555249	      0.61615803	     -0.60337392	    101.95688635	    -13.03765608	      5.73480917	     96.79296888	      1.68935600	     32.39787300	      1.77481227	     -7.49999987	    100.97001119	    -13.81717383	      0.40870961	     95.19996376	      1.66155282	     30.16009388	     -0.07880216	     -7.49999987	    -25.32620293	     -0.89333452	     -0.41575210	     91.71738184	     -6.76937345	     25.23064424	    114.68493978	    114.51128280	     90.17956339	     -5.11443080	     23.93870828	    113.51169689	    109.65667496
      6.82000000	    -31.14347953	      2.11230376	      0.02029507	     -0.34513908	      0.61695226	     -0.60345072	    101.80827008	    -12.99366108	      5.70310415	     96.66804166	      1.68717561	     32.58475839	      1.93923086	     -7.49999987	    100.82496987	    -13.88092201	      0.36717393	     95.08891432	      1.65961464	     30.36523700	      0.09827800	     -7.49999987	    -25.12795390	     -0.84711160	     -0.42754491	     91.62849088	     -6.50641439	     25.21675453	    114.48631138	    114.77751887	     90.10494223	     -5.29536766	     24.04306965	    113.78470203	    107.29668144
      6.83000000	    -31.11710281	      2.14720905	      0.02649150	     -0.34465111	      0.61785111	     -0.60383087	    101.64769864	    -13.03549160	      5.75262174	     96.53611067	      1.68487298	     32.57989535	      2.04135973	     -7.49999987	    100.63181171	    -13.80637092	      0.30074048	     95.00497141	      1.65814956	     30.36358361	      0.06593513	     -7.49999987	    -24.89721732	     -0.88634068	     -0.51209667	     91.45997979	     -6.46618978	     25.20469258	    114.31430851	    114.66618904	     89.96894768	     -5.41029176	     24.30895796	    114.05115190	    104.42567553
      6.84000000	    -30.99586267	      2.15835041	      0.10413179	     -0.34419827	      0.61914857	     -0.60425261	    101.34771205	    -13.16877902	      5.72785049	     96.37245161	      1.68201659	     32.55701147	      1.84076313	     -7.49999987	    100.30548155	    -13.67159333	      0.20991653	     94.81833889	      1.65489220	     30.34543134	     -0.16925535	     -7.49999987	    -24.79054600	     -0.88857559	     -0.55989983	     91.29255023	     -6.46602442	     25.11669769	    114.18833691	    114.21874367	     89.88347567	     -5.23196750	     23.73709928	    113.10769069	    110.67895879
      6.85000000	    -30.94462575	      2.13267565	      0.07649636	     -0.34365232	      0.62047678	     -0.60427161	    101.07173028	    -13.16257128	      5.64906961	     96.19114447	      1.67885218	     32.78037491	      2.13077450	     -7.49999987	    100.04067102	    -13.71385346	      0.18472648	     94.61157170	      1.65128344	     30.53422632	      0.11256639	     -7.49999987	    -24.56737845	     -0.91297312	     -0.51108197	     91.02213275	     -6.41305341	     24.98794314	    114.02271565	    114.22854755	     89.71091319	     -5.16003537	     23.73098260	    113.00150430	    109.36594695
      6.86000000	    -30.95698490	      2.09572432	     -0.03901439	     -0.34307647	      0.62184844	     -0.60410172	    100.83830962	    -13.03950804	      5.53710796	     95.93514069	      1.67438407	     32.56991583	      1.89883422	     -7.49999987	     99.85881270	    -13.87342076	      0.16114304	     94.41723228	      1.64789157	     30.44520753	      0.11369817	     -7.49999987	    -24.23987883	     -0.96027750	     -0.35802600	     90.72204173	     -6.39994382	     24.78243243	    113.78077155	    114.68121297	     89.50208639	     -5.20015323	     23.72531542	    112.76594089	    108.56357909
      6.87000000	    -30.91292542	      2.05140706	     -0.14316305	     -0.34238180	      0.62336935	     -0.60394242	    100.52902461	    -12.96663050	      5.39196190	     95.70554486	      1.67037687	     32.72518162	      2.08524310	     -7.49999987	     99.61218890	    -14.02063405	      0.17345588	     94.24999053	      1.64497265	     30.62086925	      0.34343327	     -7.49999987	    -23.94606388	     -1.03993804	     -0.22417998	     90.32760412	     -6.43562830	     24.54032452	    113.58997029	    114.55265997	     89.30423003	     -5.14090304	     23.72263564	    112.46004488	    107.34080834
      6.88000000	    -30.87608927	      2.03306566	     -0.20037892	     -0.34162371	      0.62528570	     -0.60398230	    100.17044874	    -12.94817644	      5.28266177	     95.37725651	      1.66464716	     32.71087657	      2.07780471	     -7.49999987	     99.27477423	    -14.04701450	      0.15303873	     93.95659430	      1.63985192	     30.62295334	      0.33940634	     -7.49999987	    -23.66910899	     -1.08831754	     -0.19980373	     89.97938257	     -6.46343127	     24.48704410	    113.38789542	    114.50202328	     89.04496453	     -5.15330641	     23.61059826	    112.21972516	    107.40348494
